<svg aria-hidden="true" style="position:absolute;width:0;height:0;overflow:hidden" xmlns="http://www.w3.org/2000/svg">
  <defs>
    <symbol id="callend-off" viewBox="0 0 18 18">
      <path d="M13.167 2.5H16.5a.833.833 0 0 1 .833.833v13.334a.833.833 0 0 1-.833.833h-15a.833.833 0 0 1-.833-.833V3.333A.833.833 0 0 1 1.5 2.5h3.333V.833H6.5V2.5h5V.833h1.667V2.5Zm2.5 6.667H2.333v6.666h13.334V9.167Zm-4.167-5h-5v1.666H4.833V4.167h-2.5V7.5h13.334V4.167h-2.5v1.666H11.5V4.167ZM4 10.833h1.667V12.5H4v-1.667Zm4.167 0h1.666V12.5H8.167v-1.667Zm4.166 0H14V12.5h-1.667v-1.667Z" fill="#4440F7"/>
    </symbol>
    <symbol id="callend-on" viewBox="0 0 18 18">
      <path d="M13.167 2.5H16.5a.833.833 0 0 1 .833.833v13.334a.833.833 0 0 1-.833.833h-15a.833.833 0 0 1-.833-.833V3.333A.833.833 0 0 1 1.5 2.5h3.333V.833H6.5V2.5h5V.833h1.667V2.5Zm2.5 6.667H2.333v6.666h13.334V9.167Zm-4.167-5h-5v1.666H4.833V4.167h-2.5V7.5h13.334V4.167h-2.5v1.666H11.5V4.167ZM4 10.833h1.667V12.5H4v-1.667Zm4.167 0h1.666V12.5H8.167v-1.667Zm4.166 0H14V12.5h-1.667v-1.667Z" fill="#fff"/>
    </symbol>
    <symbol id="arrow-down" viewBox="0 0 15 9">
        <path d="M1.762 0 0 1.713 7.5 9 15 1.713 13.238 0 7.5 5.563 1.763 0Z" fill="#A2A2A2"/>
    </symbol>
    <symbol id="arrow-up" viewBox="0 0 15 9">
        <path d="M1.762 9 0 7.287 7.5 0 15 7.287 13.238 9 7.5 3.437 1.763 9Z" fill="#fff"/>
    </symbol>
  </defs>
</svg>
